<?xml version="1.0" encoding="UTF-8" standalone="no"?>
<!-- Created with Inkscape (http://www.inkscape.org/) -->

<svg
   width="13.3in"
   height="7.5in"
   viewBox="0 0 337.82 190.50001"
   version="1.1"
   id="svg1"
   inkscape:version="1.4 (86a8ad7, 2024-10-11)"
   sodipodi:docname="venn.svg"
   xmlns:inkscape="http://www.inkscape.org/namespaces/inkscape"
   xmlns:sodipodi="http://sodipodi.sourceforge.net/DTD/sodipodi-0.dtd"
   xmlns="http://www.w3.org/2000/svg"
   xmlns:svg="http://www.w3.org/2000/svg">
  <sodipodi:namedview
     id="namedview1"
     pagecolor="#ffffff"
     bordercolor="#000000"
     borderopacity="0.25"
     inkscape:showpageshadow="2"
     inkscape:pageopacity="0.0"
     inkscape:pagecheckerboard="0"
     inkscape:deskcolor="#d1d1d1"
     inkscape:document-units="mm"
     inkscape:zoom="7.0143982"
     inkscape:cx="606.11045"
     inkscape:cy="165.58798"
     inkscape:window-width="2880"
     inkscape:window-height="1514"
     inkscape:window-x="-11"
     inkscape:window-y="-11"
     inkscape:window-maximized="1"
     inkscape:current-layer="g1"
     showguides="true">
    <sodipodi:guide
       position="169.95456,88.852664"
       orientation="1,0"
       id="guide29"
       inkscape:locked="false" />
  </sodipodi:namedview>
  <defs
     id="defs1" />
  <g
     inkscape:label="Layer 1"
     inkscape:groupmode="layer"
     id="layer1">
    <g
       transform="matrix(0.26458333,0,0,0.26458333,-105.30417,-64.822917)"
       id="g33">
      <g
         id="g1">
        <path
           d="m 1040.0541,305.85883 c 93.336,0 169,75.8199 169,169.3489 0,11.691 -1.182,23.105 -3.433,34.129 l -3.396,13.233 -6.15,-1.585 c -11.001,-2.255 -22.392,-3.44 -34.059,-3.44 -46.668,0 -88.918,18.955 -119.501,49.601 l -2.461,2.713 -2.461,-2.713 c -30.583,-30.646 -72.83302,-49.601 -119.50102,-49.601 -11.667,0 -23.05702,1.185 -34.05902,3.44 l -6.15,1.585 -3.395,-13.233 c -2.252,-11.024 -3.434,-22.438 -3.434,-34.129 0,-93.529 75.66402,-169.3489 169.00004,-169.3489 z"
           stroke="#ffffff"
           stroke-width="3"
           stroke-linejoin="round"
           stroke-miterlimit="10"
           fill="none"
           fill-rule="evenodd"
           id="path1"
           style="stroke:#000000;stroke-opacity:1" />
        <path
           d="m 1202.2461,521.85873 10.048,2.583 c 68.804,21.399 118.76,85.571 118.76,161.41 0,93.34 -75.674,169.007 -169.022,169.007 -46.674,0 -88.93,-18.917 -119.517,-49.501 l -2.461,-2.707 8.448,-9.295 c 24.112,-29.214 38.596,-66.668 38.596,-107.504 0,-11.668 -1.182,-23.059 -3.433,-34.061 l -3.396,-13.206 10.047,-2.584 c 52.926,-16.46 94.7,-58.23 111.161,-111.151 z"
           stroke="#ffffff"
           stroke-width="3"
           stroke-linejoin="round"
           stroke-miterlimit="10"
           fill="none"
           fill-rule="evenodd"
           id="path2"
           style="stroke:#000000;stroke-opacity:1" />
        <path
           d="m 877.86206,521.85873 0.769,2.991 c 16.461,52.921 58.23502,94.691 111.16102,111.151 l 10.047,2.584 -3.396,13.206 c -2.251,11.002 -3.433,22.393 -3.433,34.061 0,40.836 14.48402,78.29 38.59602,107.504 l 8.448,9.295 -2.461,2.707 c -30.587,30.584 -72.84202,49.501 -119.51702,49.501 -93.34802,0 -169.02202,-75.667 -169.02202,-169.007 0,-75.839 49.957,-140.012 118.76,-161.41 z"
           stroke="#ffffff"
           stroke-width="3"
           stroke-linejoin="round"
           stroke-miterlimit="10"
           fill="none"
           fill-rule="evenodd"
           id="path3"
           style="stroke:#000000;stroke-opacity:1" />
        <path
           d="m 1040.0541,568.85873 8.403,9.351 c 13.705,16.795 24.283,36.298 30.832,57.595 l 0.765,3.009 -6.118,1.591 c -10.944,2.265 -22.276,3.454 -33.882,3.454 -11.606,0 -22.938,-1.189 -33.882,-3.454 l -6.118,-1.591 0.765,-3.009 c 6.55,-21.297 17.127,-40.8 30.832,-57.595 z"
           stroke="#ffffff"
           stroke-width="3"
           stroke-linejoin="round"
           stroke-miterlimit="10"
           fill="none"
           fill-rule="evenodd"
           id="path4"
           style="stroke:#000000;stroke-opacity:1" />
        <path
           d="m 968.40002,379.84673 c 45.33398,0 90.66698,0 135.99998,0"
           stroke="#ffffff"
           stroke-width="3"
           stroke-miterlimit="8"
           fill="none"
           fill-rule="evenodd"
           id="path5"
           style="stroke:#000000;stroke-opacity:1" />
        <path
           d="m 968.40002,429.8653 c 45.33398,0 90.66698,0 135.99998,0"
           stroke="#ffffff"
           stroke-width="3"
           stroke-miterlimit="8"
           fill="none"
           fill-rule="evenodd"
           id="path6"
           style="stroke:#000000;stroke-opacity:1" />
        <path
           d="m 1001.0491,357.84633 h 42 v 42.0004 h -42 z"
           stroke="#ffffff"
           stroke-width="1.0106"
           stroke-miterlimit="8"
           fill="#3d3d3d"
           fill-rule="evenodd"
           id="path7"
           style="stroke:#000000;stroke-opacity:1;fill:#ffffff;fill-opacity:1" />
        <text
           fill="#ffffff"
           font-family="'Source Sans Pro', 'Source Sans Pro_MSFontService', sans-serif"
           font-weight="400"
           font-size="24px"
           id="text7"
           style="stroke:none;stroke-opacity:1;fill:#000000;fill-opacity:1"
           x="1013.9182"
           y="387.35873">H</text>
        <path
           d="m 1080.3097,441.41297 c 0,-20.331 0,-40.666 0,-61"
           stroke="#ffffff"
           stroke-width="3"
           stroke-miterlimit="8"
           fill="none"
           fill-rule="evenodd"
           id="path10"
           style="stroke:#000000;stroke-opacity:1" />
        <text
           fill="#ffffff"
           font-family="'Source Sans Pro', 'Source Sans Pro_MSFontService', sans-serif"
           font-weight="400"
           font-size="32px"
           id="text10"
           style="fill:#000000;fill-opacity:1;stroke:none;stroke-opacity:1"
           x="907.29913"
           y="489.35873">quantum computing</text>
        <path
           d="m 1277.5585,768.32883 c -4.6833,0 -9.3662,0 -14.049,-2.4242 -4.6828,-2.4243 -9.3656,-7.27273 -14.0488,-9.69698 -4.6831,-2.42424 -9.366,-2.42424 -14.0489,2.3e-4 -4.683,2.42447 -9.3658,7.27285 -14.0488,9.69695 -4.683,2.424 -9.3658,2.424 -14.0484,2.424"
           stroke="#ffffff"
           stroke-width="3.77953"
           stroke-miterlimit="8"
           fill="none"
           fill-rule="evenodd"
           id="path11"
           style="stroke:#000000;stroke-opacity:1" />
        <path
           d="m 1207.3146,732.38951 c 4.6833,0 9.3662,0 14.049,2.42428 4.6828,2.42432 9.3656,7.27264 14.0488,9.69694 4.6831,2.4242 9.366,2.4242 14.049,-2e-4 4.6829,-2.4245 9.3657,-7.27292 14.0487,-9.69697 4.683,-2.42405 9.3658,-2.42405 14.0484,-2.42405"
           stroke="#ffffff"
           stroke-width="3.77953"
           stroke-miterlimit="8"
           fill="none"
           fill-rule="evenodd"
           id="path12"
           style="stroke:#000000;stroke-opacity:1" />
        <path
           d="m 1208.5591,768.32883 c -4.6807,0 -9.3609,0 -14.0411,-2.4242 -4.6801,-2.4243 -9.3603,-7.27273 -14.0408,-9.69698 -4.6805,-2.42424 -9.3607,-2.42424 -14.041,2.3e-4 -4.6803,2.42447 -9.3607,7.27315 -14.0408,9.69705 -4.68,2.4239 -9.3602,2.4239 -14.0408,2.4239 -4.6805,0 -9.3603,0 -14.0404,0"
           stroke="#ffffff"
           stroke-width="3.77953"
           stroke-miterlimit="8"
           fill="none"
           fill-rule="evenodd"
           id="path13"
           style="stroke:#000000;stroke-opacity:1" />
        <path
           d="m 1122.3142,732.38951 c 4.6805,0 9.3595,0 14.0405,0 4.6809,0 9.3611,0 14.0409,2.4239 4.6798,2.4239 9.3608,7.27302 14.0413,9.69732 4.6804,2.4242 9.3606,2.4242 14.041,-2e-4 4.6803,-2.4245 9.3605,-7.27288 14.0408,-9.69697 4.6803,-2.42405 9.3605,-2.42405 14.0404,-2.42405"
           stroke="#ffffff"
           stroke-width="3.77953"
           stroke-miterlimit="8"
           fill="none"
           fill-rule="evenodd"
           id="path14"
           style="stroke:#000000;stroke-opacity:1" />
        <path
           d="m 1206.4925,724.47082 c 0,4.96771 0,9.93501 0,14.90191"
           stroke="#ffffff"
           stroke-width="7.55905"
           stroke-miterlimit="8"
           fill="none"
           fill-rule="evenodd"
           id="path15"
           style="stroke:#000000;stroke-opacity:1" />
        <path
           d="m 1129.4925,724.47082 c 0,4.96771 0,9.93501 0,14.90191"
           stroke="#ffffff"
           stroke-width="7.55905"
           stroke-miterlimit="8"
           fill="none"
           fill-rule="evenodd"
           id="path16"
           style="stroke:#000000;stroke-opacity:1" />
        <text
           fill="#ffffff"
           font-family="'Source Sans Pro', 'Source Sans Pro_MSFontService', sans-serif"
           font-weight="400"
           font-size="32px"
           id="text17"
           style="fill:#000000;fill-opacity:1;stroke:none;stroke-opacity:1"
           x="1128.4269"
           y="674.48761">photonics</text>
        <path
           d="m 877.03106,724.84473 41.00002,68"
           stroke="#ffffff"
           stroke-width="3.2569"
           stroke-miterlimit="8"
           fill="#ffffff"
           fill-rule="evenodd"
           id="path18"
           style="stroke:#000000;stroke-opacity:1" />
        <path
           d="m 877.03106,724.85373 41.00002,23"
           stroke="#ffffff"
           stroke-width="3.2569"
           stroke-miterlimit="8"
           fill="#ffffff"
           fill-rule="evenodd"
           id="path20"
           style="stroke:#000000;stroke-opacity:1" />
        <path
           d="m 877.03137,769.86333 41.00011,-23"
           stroke="#ffffff"
           stroke-width="3.2569"
           stroke-miterlimit="8"
           fill="#ffffff"
           fill-rule="evenodd"
           id="path21"
           style="stroke:#000000;stroke-opacity:1" />
        <path
           d="m 877.03106,769.85373 41.00002,23"
           stroke="#ffffff"
           stroke-width="3.2569"
           stroke-miterlimit="8"
           fill="#ffffff"
           fill-rule="evenodd"
           id="path22"
           style="stroke:#000000;stroke-opacity:1" />
        <path
           d="m 877.03137,815.86313 41.00011,-22"
           stroke="#ffffff"
           stroke-width="3.2569"
           stroke-miterlimit="8"
           fill="#ffffff"
           fill-rule="evenodd"
           id="path23"
           style="stroke:#000000;stroke-opacity:1" />
        <path
           d="m 877.03137,815.87233 41.00011,-68"
           stroke="#ffffff"
           stroke-width="3.2569"
           stroke-miterlimit="8"
           fill="#ffffff"
           fill-rule="evenodd"
           id="path24"
           style="stroke:#000000;stroke-opacity:1" />
        <path
           d="m 886.03706,816.34473 c 0,4.694 -3.806,8.5 -8.5,8.5 -4.695,0 -8.5,-3.806 -8.5,-8.5 0,-4.695 3.805,-8.5 8.5,-8.5 4.694,0 8.5,3.805 8.5,8.5 z"
           stroke="#ffffff"
           stroke-width="1.23087"
           stroke-linecap="round"
           stroke-linejoin="bevel"
           stroke-miterlimit="10"
           fill="#ffffff"
           fill-rule="evenodd"
           id="path25"
           style="stroke:#000000;stroke-opacity:1" />
        <path
           d="m 886.03706,770.34473 c 0,4.694 -3.806,8.5 -8.5,8.5 -4.695,0 -8.5,-3.806 -8.5,-8.5 0,-4.695 3.805,-8.5 8.5,-8.5 4.694,0 8.5,3.805 8.5,8.5 z"
           stroke="#ffffff"
           stroke-width="1.23087"
           stroke-linecap="round"
           stroke-linejoin="bevel"
           stroke-miterlimit="10"
           fill="#ffffff"
           fill-rule="evenodd"
           id="path26"
           style="stroke:#000000;stroke-opacity:1" />
        <path
           d="m 926.03708,793.34473 c 0,4.694 -3.806,8.5 -8.5,8.5 -4.695,0 -8.5,-3.806 -8.5,-8.5 0,-4.695 3.805,-8.5 8.5,-8.5 4.694,0 8.5,3.805 8.5,8.5 z"
           stroke="#ffffff"
           stroke-width="1.23087"
           stroke-linecap="round"
           stroke-linejoin="bevel"
           stroke-miterlimit="10"
           fill="#ffffff"
           fill-rule="evenodd"
           id="path27"
           style="stroke:#000000;stroke-opacity:1" />
        <text
           fill="#ffffff"
           font-family="'Source Sans Pro', 'Source Sans Pro_MSFontService', sans-serif"
           font-weight="400"
           font-size="32px"
           id="text27"
           style="fill:#000000;fill-opacity:1;stroke:none;stroke-opacity:1"
           x="806.4801"
           y="647.3587">machine</text>
        <text
           fill="#ffffff"
           font-family="'Source Sans Pro', 'Source Sans Pro_MSFontService', sans-serif"
           font-weight="400"
           font-size="32px"
           id="text28"
           style="fill:#000000;fill-opacity:1;stroke:none;stroke-opacity:1"
           x="809.23309"
           y="682.3587">learning</text>
        <path
           d="m 808.37806,484.27573 163.32602,90.666 -0.647,1.165 -163.32702,-90.665 z m 164.94402,87.751 c 1.932,1.072 2.628,3.507 1.556,5.439 -1.072,1.931 -3.507,2.628 -5.439,1.556 -1.931,-1.072 -2.628,-3.507 -1.556,-5.439 1.073,-1.931 3.508,-2.628 5.439,-1.556 z"
           fill="#dddddd"
           id="path28"
           style="stroke:#000000;stroke-opacity:1;fill:#000000;fill-opacity:1"
           sodipodi:nodetypes="cccccccccc" />
        <text
           fill="#ffffff"
           font-family="'Source Sans Pro', 'Source Sans Pro_MSFontService', sans-serif"
           font-weight="400"
           font-size="32px"
           id="text29"
           style="fill:#000000;fill-opacity:1;stroke:none;stroke-opacity:1"
           x="667.38715"
           y="455.68994"><tspan
             sodipodi:role="line"
             id="tspan3"
             x="667.38715"
             y="455.68994"
             style="text-align:center;text-anchor:middle">quantum machine</tspan><tspan
             sodipodi:role="line"
             id="tspan4"
             x="667.38715"
             y="495.68994"
             style="text-align:center;text-anchor:middle">learning</tspan></text>
        <text
           fill="#ffffff"
           font-family="'Source Sans Pro', 'Source Sans Pro_MSFontService', sans-serif"
           font-weight="400"
           font-size="32px"
           id="text30"
           style="fill:#000000;fill-opacity:1;stroke:none;stroke-opacity:1"
           x="613.48608"
           y="483.35873" />
        <path
           d="m 1041.7207,844.20673 2e-4,-153.348 h -1.3334 l -10e-5,153.348 z m 3.3335,-153.348 c 0,-2.209 -1.7909,-4 -4,-4 -2.2091,0 -4,1.791 -4,4 0,2.209 1.7908,4 4,4 2.2091,0 4,-1.791 4,-4 z"
           fill="#dddddd"
           id="path30"
           style="stroke:#000000;stroke-opacity:1;font-variation-settings:normal;opacity:1;vector-effect:none;fill:#000000;fill-opacity:1;stroke-width:1;stroke-linecap:butt;stroke-linejoin:miter;stroke-miterlimit:4;stroke-dasharray:none;stroke-dashoffset:0;-inkscape-stroke:none;stop-color:#000000;stop-opacity:1" />
        <text
           fill="#ffffff"
           font-family="'Source Sans Pro', 'Source Sans Pro_MSFontService', sans-serif"
           font-weight="400"
           font-size="32px"
           id="text31"
           style="fill:#000000;fill-opacity:1;stroke:none;stroke-opacity:1"
           x="884.94708"
           y="894.3587">photonic neural networks</text>
        <path
           d="m 1284.1047,475.28085 -174.3836,100.31028 0.665,1.1556 174.3834,-100.31012 z m -176.0456,97.42078 c -1.915,1.1016 -2.574,3.5471 -1.472,5.4621 1.101,1.915 3.546,2.574 5.461,1.473 1.915,-1.102 2.575,-3.547 1.473,-5.4622 -1.101,-1.915 -3.547,-2.5744 -5.462,-1.4729 z"
           fill="#dddddd"
           id="path31"
           style="stroke:#000000;stroke-opacity:1;font-variation-settings:normal;opacity:1;vector-effect:none;fill:#000000;fill-opacity:1;stroke-width:1;stroke-linecap:butt;stroke-linejoin:miter;stroke-miterlimit:4;stroke-dasharray:none;stroke-dashoffset:0;-inkscape-stroke:none;stop-color:#000000;stop-opacity:1" />
        <text
           fill="#ffffff"
           font-family="'Source Sans Pro', 'Source Sans Pro_MSFontService', sans-serif"
           font-weight="400"
           font-size="32px"
           id="text32"
           style="fill:#000000;fill-opacity:1;stroke:none;stroke-opacity:1"
           x="1450.2141"
           y="455.68994"><tspan
             sodipodi:role="line"
             id="tspan1"
             x="1450.2141"
             y="455.68994"
             style="text-align:center;text-anchor:middle">photonic quantum</tspan><tspan
             sodipodi:role="line"
             id="tspan2"
             x="1450.2141"
             y="495.68994"
             style="text-align:center;text-anchor:middle">computing</tspan></text>
        <path
           d="m 926.03408,747.34573 c 0,4.694 -3.805,8.499 -8.5,8.499 -4.694,0 -8.5,-3.805 -8.5,-8.499 0,-4.695 3.806,-8.501 8.5,-8.501 4.695,0 8.5,3.806 8.5,8.501 z"
           stroke="#ffffff"
           stroke-width="1.23087"
           stroke-linecap="round"
           stroke-linejoin="bevel"
           stroke-miterlimit="10"
           fill="#ffffff"
           fill-rule="evenodd"
           id="path17"
           style="stroke:#000000;stroke-opacity:1" />
        <path
           d="m 886.03706,724.84573 c 0,4.418 -3.806,8 -8.5,8 -4.695,0 -8.5,-3.582 -8.5,-8 0,-4.419 3.805,-8 8.5,-8 4.694,0 8.5,3.581 8.5,8 z"
           stroke="#ffffff"
           stroke-width="1.23087"
           stroke-linecap="round"
           stroke-linejoin="bevel"
           stroke-miterlimit="10"
           fill="#ffffff"
           fill-rule="evenodd"
           id="path19"
           style="stroke:#000000;stroke-opacity:1" />
        <path
           d="m 1085.3045,379.84673 c 0,2.75855 -2.2365,4.99476 -4.9948,4.99476 -2.7583,0 -4.9947,-2.23621 -4.9947,-4.99476 0,-2.75853 2.2364,-4.99477 4.9947,-4.99477 2.7583,0 4.9948,2.23623 4.9948,4.99477 z"
           stroke="#ffffff"
           stroke-width="1.34905"
           stroke-miterlimit="8"
           fill="#ffffff"
           fill-rule="evenodd"
           id="path9"
           style="fill:#000000;fill-opacity:1;stroke:#000000;stroke-opacity:1" />
        <circle
           style="fill:none;fill-opacity:1;stroke:#000000;stroke-width:1.99256;stroke-miterlimit:10;stroke-opacity:1;-inkscape-stroke:none"
           id="path8"
           cx="1080.3097"
           cy="429.8653"
           r="11.547676" />
      </g>
      <circle
         style="font-variation-settings:normal;opacity:1;vector-effect:none;fill:#000000;fill-opacity:1;stroke:#000000;stroke-width:1;stroke-linecap:butt;stroke-linejoin:miter;stroke-miterlimit:4;stroke-dasharray:none;stroke-dashoffset:0;stroke-opacity:1;-inkscape-stroke:none;paint-order:markers stroke fill"
         id="path29"
         cx="1040.3929"
         cy="613.38507"
         r="13.401008" />
    </g>
  </g>
</svg>
