<?xml version="1.0" encoding="UTF-8" standalone="no"?>
<!-- Created with Inkscape (http://www.inkscape.org/) -->

<svg
   width="12.221125in"
   height="7.0236135in"
   viewBox="0 0 310.41657 178.39979"
   version="1.1"
   id="svg1"
   inkscape:version="1.4 (86a8ad7, 2024-10-11)"
   sodipodi:docname="venn.svg"
   xml:space="preserve"
   xmlns:inkscape="http://www.inkscape.org/namespaces/inkscape"
   xmlns:sodipodi="http://sodipodi.sourceforge.net/DTD/sodipodi-0.dtd"
   xmlns:xlink="http://www.w3.org/1999/xlink"
   xmlns="http://www.w3.org/2000/svg"
   xmlns:svg="http://www.w3.org/2000/svg"><sodipodi:namedview
     id="namedview1"
     pagecolor="#ffffff"
     bordercolor="#000000"
     borderopacity="0.25"
     inkscape:showpageshadow="2"
     inkscape:pageopacity="0.0"
     inkscape:pagecheckerboard="0"
     inkscape:deskcolor="#d1d1d1"
     inkscape:document-units="mm"
     inkscape:zoom="1.0513889"
     inkscape:cx="663.88375"
     inkscape:cy="400.89828"
     inkscape:window-width="1920"
     inkscape:window-height="974"
     inkscape:window-x="-11"
     inkscape:window-y="-11"
     inkscape:window-maximized="1"
     inkscape:current-layer="g1"
     showguides="true"
     showgrid="false"><inkscape:grid
       id="grid42"
       units="mm"
       originx="-20.997427"
       originy="0"
       spacingx="0.99999996"
       spacingy="1.0000001"
       empcolor="#0099e5"
       empopacity="0.30196078"
       color="#0099e5"
       opacity="0.14901961"
       empspacing="5"
       enabled="true"
       visible="false" /></sodipodi:namedview><defs
     id="defs1"><marker
       style="overflow:visible"
       id="Dot"
       refX="0"
       refY="0"
       orient="auto"
       inkscape:stockid="Dot"
       markerWidth="1"
       markerHeight="1"
       viewBox="0 0 1 1"
       inkscape:isstock="true"
       inkscape:collect="always"
       preserveAspectRatio="xMidYMid"><path
         transform="scale(0.5)"
         style="fill:context-stroke;fill-rule:evenodd;stroke:none"
         d="M 5,0 C 5,2.76 2.76,5 0,5 -2.76,5 -5,2.76 -5,0 c 0,-2.76 2.3,-5 5,-5 2.76,0 5,2.24 5,5 z"
         sodipodi:nodetypes="sssss"
         id="path57" /></marker><inkscape:path-effect
       effect="bspline"
       id="path-effect56"
       is_visible="true"
       lpeversion="1.3"
       weight="33.333333"
       steps="2"
       helper_size="0"
       apply_no_weight="true"
       apply_with_weight="true"
       only_selected="false"
       uniform="false" /></defs><g
     inkscape:label="Layer 1"
     inkscape:groupmode="layer"
     id="layer1"
     transform="translate(-20.997428)"><g
       transform="matrix(0.26458333,0,0,0.26458333,-105.30417,-64.822917)"
       id="g33"><g
         id="g1"><g
           id="g54"
           transform="translate(-1001.077,-143.66139)"><path
             d="m 1969.5254,765.97462 a 188.37448,188.37451 0 0 1 -113.6816,-146.64258 188.37448,188.37451 0 0 0 -115.9317,173.27735 188.37448,188.37451 0 0 0 188.3731,188.37305 188.37448,188.37451 0 0 0 112.8652,-38.31446 188.37448,188.37451 0 0 1 -74.0449,-149.03516 188.37448,188.37451 0 0 1 2.4199,-27.6582 z"
             style="opacity:1;fill:#ffc799;fill-opacity:1;stroke:none;stroke-width:1.20372"
             id="path50" /><path
             d="m 2114.7364,766.28321 a 188.37448,188.37451 0 0 1 -72.8535,14.74805 188.37448,188.37451 0 0 1 -72.3575,-15.05664 188.37448,188.37451 0 0 0 -2.4199,27.6582 188.37448,188.37451 0 0 0 74.0449,149.03516 188.37448,188.37451 0 0 0 75.5098,-150.05859 188.37448,188.37451 0 0 0 -1.9238,-26.32618 z"
             style="opacity:1;fill:#d8afc5;fill-opacity:1;stroke:none;stroke-width:1.20372"
             id="path48" /><path
             d="m 2228.1875,619.94727 a 188.37448,188.37451 0 0 1 -113.4511,146.33594 188.37448,188.37451 0 0 1 1.9238,26.32618 188.37448,188.37451 0 0 1 -75.5098,150.05859 188.37448,188.37451 0 0 0 114.3301,39.33985 188.37448,188.37451 0 0 0 188.375,-188.37501 188.37448,188.37451 0 0 0 -115.668,-173.68555 z"
             style="opacity:1;fill:#d2c4f9;fill-opacity:1;stroke:none;stroke-width:1.20372"
             id="path46" /><path
             d="m 1969.5254,765.97462 a 188.37448,188.37451 0 0 1 73.5137,-122.69727 188.37448,188.37451 0 0 0 -114.7539,-39.04297 188.37448,188.37451 0 0 0 -72.4414,15.09766 188.37448,188.37451 0 0 0 113.6816,146.64258 z"
             style="opacity:1;fill:#afc1c5;fill-opacity:1;stroke:none;stroke-width:1.20372"
             id="path51" /><path
             d="m 2114.7364,766.28321 a 188.37448,188.37451 0 0 0 -71.6973,-123.00586 188.37448,188.37451 0 0 0 -73.5137,122.69727 188.37448,188.37451 0 0 0 72.3575,15.05664 188.37448,188.37451 0 0 0 72.8535,-14.74805 z"
             style="opacity:1;fill:#eaeaf5;fill-opacity:1;stroke:none;stroke-width:1.20372"
             id="path49" /><path
             d="m 2228.1875,619.94727 a 188.37448,188.37451 0 0 0 -72.707,-14.6875 188.37448,188.37451 0 0 0 -112.4414,38.01758 188.37448,188.37451 0 0 1 71.6973,123.00586 188.37448,188.37451 0 0 0 113.4511,-146.33594 z"
             style="opacity:1;fill:#a8b9f6;fill-opacity:1;stroke:none;stroke-width:1.20372"
             id="path47" /><path
             d="m 2041.8829,404.28321 a 188.37448,188.37451 0 0 0 -188.3751,188.37305 188.37448,188.37451 0 0 0 2.336,26.67578 188.37448,188.37451 0 0 1 72.4414,-15.09766 188.37448,188.37451 0 0 1 114.7539,39.04297 188.37448,188.37451 0 0 1 112.4414,-38.01758 188.37448,188.37451 0 0 1 72.707,14.6875 188.37448,188.37451 0 0 0 2.0704,-27.29101 188.37448,188.37451 0 0 0 -188.375,-188.37305 z"
             style="opacity:1;fill:#a1d9f9;fill-opacity:1;stroke:none;stroke-width:1.20372"
             id="path45" /></g><text
           fill="#ffffff"
           font-family="'Source Sans Pro', 'Source Sans Pro_MSFontService', sans-serif"
           font-weight="400"
           font-size="32px"
           id="text29"
           style="fill:#000000;fill-opacity:1;stroke:none;stroke-opacity:1"
           x="686.76038"
           y="400.58636"><tspan
             sodipodi:role="line"
             id="tspan3"
             x="686.76038"
             y="400.58636"
             style="text-align:center;text-anchor:middle">quantum machine</tspan><tspan
             sodipodi:role="line"
             id="tspan4"
             x="686.76038"
             y="440.58636"
             style="text-align:center;text-anchor:middle">learning</tspan></text><text
           fill="#ffffff"
           font-family="'Source Sans Pro', 'Source Sans Pro_MSFontService', sans-serif"
           font-weight="400"
           font-size="32px"
           id="text30"
           style="fill:#000000;fill-opacity:1;stroke:none;stroke-opacity:1"
           x="-9.6379499"
           y="453.08307" /><text
           fill="#ffffff"
           font-family="'Source Sans Pro', 'Source Sans Pro_MSFontService', sans-serif"
           font-weight="400"
           font-size="32px"
           id="text31"
           style="fill:#000000;fill-opacity:1;stroke:none;stroke-opacity:1"
           x="870.63306"
           y="895.83258">photonic neural networks</text><text
           fill="#ffffff"
           font-family="'Source Sans Pro', 'Source Sans Pro_MSFontService', sans-serif"
           font-weight="400"
           font-size="32px"
           id="text32"
           style="fill:#000000;fill-opacity:1;stroke:none;stroke-opacity:1"
           x="1470.4117"
           y="400.58636"><tspan
             sodipodi:role="line"
             id="tspan1"
             x="1470.4117"
             y="400.58636"
             style="text-align:center;text-anchor:middle">photonic quantum</tspan><tspan
             sodipodi:role="line"
             id="tspan2"
             x="1470.4117"
             y="440.58636"
             style="text-align:center;text-anchor:middle">informationprocessing</tspan></text><path
           style="fill:none;fill-opacity:1;stroke:#000000;stroke-width:2.64567;stroke-dasharray:none;stroke-opacity:1;marker-end:url(#Dot)"
           d="m 520.04666,609.74326 c 47.21937,0.6161 94.43874,1.23219 141.65811,1.84829"
           id="path56"
           inkscape:path-effect="#path-effect56"
           inkscape:original-d="m 520.04666,609.74326 c 47.21937,0.6161 94.43874,1.23219 141.65811,1.84829"
           sodipodi:nodetypes="cc"
           transform="rotate(30,964.03726,1076.9452)" /><g
           id="g36"
           style="display:inline"
           transform="translate(-6.6893838,-45.062197)"><path
             d="m 968.40002,379.84673 c 45.33398,0 90.66698,0 135.99998,0"
             stroke="#ffffff"
             stroke-width="3"
             stroke-miterlimit="8"
             fill="none"
             fill-rule="evenodd"
             id="path5"
             style="stroke:#000000;stroke-opacity:1" /><path
             d="m 968.40002,429.8653 c 45.33398,0 90.66698,0 135.99998,0"
             stroke="#ffffff"
             stroke-width="3"
             stroke-miterlimit="8"
             fill="none"
             fill-rule="evenodd"
             id="path6"
             style="stroke:#000000;stroke-opacity:1" /><path
             d="m 1001.0491,357.84633 h 42 v 42.0004 h -42 z"
             stroke="#ffffff"
             stroke-width="1.0106"
             stroke-miterlimit="8"
             fill="#3d3d3d"
             fill-rule="evenodd"
             id="path7"
             style="fill:#ffffff;fill-opacity:1;stroke:#000000;stroke-opacity:1" /><text
             fill="#ffffff"
             font-family="'Source Sans Pro', 'Source Sans Pro_MSFontService', sans-serif"
             font-weight="400"
             font-size="24px"
             id="text7"
             style="fill:#000000;fill-opacity:1;stroke:none;stroke-opacity:1"
             x="1013.9182"
             y="387.35873">H</text><path
             d="m 1080.3097,441.41297 c 0,-20.331 0,-40.666 0,-61"
             stroke="#ffffff"
             stroke-width="3"
             stroke-miterlimit="8"
             fill="none"
             fill-rule="evenodd"
             id="path10"
             style="stroke:#000000;stroke-opacity:1" /><text
             fill="#ffffff"
             font-family="'Source Sans Pro', 'Source Sans Pro_MSFontService', sans-serif"
             font-weight="400"
             font-size="32px"
             id="text10"
             style="fill:#000000;fill-opacity:1;stroke:none;stroke-opacity:1"
             x="907.29913"
             y="489.35873">quantum computing</text><path
             d="m 1085.3045,379.84673 c 0,2.75855 -2.2365,4.99476 -4.9948,4.99476 -2.7583,0 -4.9947,-2.23621 -4.9947,-4.99476 0,-2.75853 2.2364,-4.99477 4.9947,-4.99477 2.7583,0 4.9948,2.23623 4.9948,4.99477 z"
             stroke="#ffffff"
             stroke-width="1.34905"
             stroke-miterlimit="8"
             fill="#ffffff"
             fill-rule="evenodd"
             id="path9"
             style="fill:#000000;fill-opacity:1;stroke:#000000;stroke-opacity:1" /><circle
             style="fill:none;fill-opacity:1;stroke:#000000;stroke-width:1.99256;stroke-miterlimit:10;stroke-opacity:1;-inkscape-stroke:none"
             id="path8"
             cx="1080.3097"
             cy="429.8653"
             r="11.547676" /></g><text
           fill="#ffffff"
           font-family="'Source Sans Pro', 'Source Sans Pro_MSFontService', sans-serif"
           font-weight="400"
           font-size="32px"
           id="text28-1"
           style="display:inline;fill:#000000;fill-opacity:1;stroke:none;stroke-opacity:1"
           x="1003.469"
           y="589.15552">PQML</text><g
           id="g35"
           style="display:inline"
           transform="translate(39.495831,-23.331515)"><g
             id="g56"
             transform="translate(-17.120212,-26.63144)"><path
               d="m 1277.5585,768.32883 c -4.6833,0 -9.3662,0 -14.049,-2.4242 -4.6828,-2.4243 -9.3656,-7.27273 -14.0488,-9.69698 -4.6831,-2.42424 -9.366,-2.42424 -14.0489,2.3e-4 -4.683,2.42447 -9.3658,7.27285 -14.0488,9.69695 -4.683,2.424 -9.3658,2.424 -14.0484,2.424"
               stroke="#ffffff"
               stroke-width="3.77953"
               stroke-miterlimit="8"
               fill="none"
               fill-rule="evenodd"
               id="path11"
               style="stroke:#000000;stroke-opacity:1" /><path
               d="m 1207.3146,732.38951 c 4.6833,0 9.3662,0 14.049,2.42428 4.6828,2.42432 9.3656,7.27264 14.0488,9.69694 4.6831,2.4242 9.366,2.4242 14.049,-2e-4 4.6829,-2.4245 9.3657,-7.27292 14.0487,-9.69697 4.683,-2.42405 9.3658,-2.42405 14.0484,-2.42405"
               stroke="#ffffff"
               stroke-width="3.77953"
               stroke-miterlimit="8"
               fill="none"
               fill-rule="evenodd"
               id="path12"
               style="stroke:#000000;stroke-opacity:1" /><path
               d="m 1208.5591,768.32883 c -4.6807,0 -9.3609,0 -14.0411,-2.4242 -4.6801,-2.4243 -9.3603,-7.27273 -14.0408,-9.69698 -4.6805,-2.42424 -9.3607,-2.42424 -14.041,2.3e-4 -4.6803,2.42447 -9.3607,7.27315 -14.0408,9.69705 -4.68,2.4239 -9.3602,2.4239 -14.0408,2.4239 -4.6805,0 -9.3603,0 -14.0404,0"
               stroke="#ffffff"
               stroke-width="3.77953"
               stroke-miterlimit="8"
               fill="none"
               fill-rule="evenodd"
               id="path13"
               style="stroke:#000000;stroke-opacity:1" /><path
               d="m 1122.3142,732.38951 c 4.6805,0 9.3595,0 14.0405,0 4.6809,0 9.3611,0 14.0409,2.4239 4.6798,2.4239 9.3608,7.27302 14.0413,9.69732 4.6804,2.4242 9.3606,2.4242 14.041,-2e-4 4.6803,-2.4245 9.3605,-7.27288 14.0408,-9.69697 4.6803,-2.42405 9.3605,-2.42405 14.0404,-2.42405"
               stroke="#ffffff"
               stroke-width="3.77953"
               stroke-miterlimit="8"
               fill="none"
               fill-rule="evenodd"
               id="path14"
               style="stroke:#000000;stroke-opacity:1" /><path
               d="m 1206.4925,724.47082 c 0,4.96771 0,9.93501 0,14.90191"
               stroke="#ffffff"
               stroke-width="7.55905"
               stroke-miterlimit="8"
               fill="none"
               fill-rule="evenodd"
               id="path15"
               style="stroke:#000000;stroke-opacity:1" /><path
               d="m 1129.4925,724.47082 c 0,4.96771 0,9.93501 0,14.90191"
               stroke="#ffffff"
               stroke-width="7.55905"
               stroke-miterlimit="8"
               fill="none"
               fill-rule="evenodd"
               id="path16"
               style="stroke:#000000;stroke-opacity:1" /></g><text
             fill="#ffffff"
             font-family="'Source Sans Pro', 'Source Sans Pro_MSFontService', sans-serif"
             font-weight="400"
             font-size="32px"
             id="text17"
             style="fill:#000000;fill-opacity:1;stroke:none;stroke-opacity:1"
             x="1136.0359"
             y="645.95331">photonics</text></g><g
           id="g34"
           style="display:inline"
           transform="translate(-1.7771837,-57.454295)"><text
             fill="#ffffff"
             font-family="'Source Sans Pro', 'Source Sans Pro_MSFontService', sans-serif"
             font-weight="400"
             font-size="32px"
             id="text27"
             style="fill:#000000;fill-opacity:1;stroke:none;stroke-opacity:1"
             x="774.45947"
             y="674.06232">machine</text><text
             fill="#ffffff"
             font-family="'Source Sans Pro', 'Source Sans Pro_MSFontService', sans-serif"
             font-weight="400"
             font-size="32px"
             id="text28"
             style="fill:#000000;fill-opacity:1;stroke:none;stroke-opacity:1"
             x="777.21246"
             y="709.06232">learning</text><g
             id="g55"
             transform="translate(-7.6089829,20.924703)"><path
               d="m 877.03106,724.84473 53.00002,68"
               stroke="#ffffff"
               stroke-width="3.2569"
               stroke-miterlimit="8"
               fill="#ffffff"
               fill-rule="evenodd"
               id="path18"
               style="stroke:#000000;stroke-width:2.12409;stroke-dasharray:none;stroke-opacity:1"
               sodipodi:nodetypes="cc" /><path
               d="m 877.03106,724.85373 53.00002,23"
               stroke="#ffffff"
               stroke-width="3.2569"
               stroke-miterlimit="8"
               fill="#ffffff"
               fill-rule="evenodd"
               id="path20"
               style="stroke:#000000;stroke-width:2.12409;stroke-dasharray:none;stroke-opacity:1"
               sodipodi:nodetypes="cc" /><path
               d="m 877.03137,769.86333 53.00011,-23"
               stroke="#ffffff"
               stroke-width="3.2569"
               stroke-miterlimit="8"
               fill="#ffffff"
               fill-rule="evenodd"
               id="path21"
               style="stroke:#000000;stroke-width:2.12409;stroke-dasharray:none;stroke-opacity:1"
               sodipodi:nodetypes="cc" /><path
               d="m 877.03106,769.85373 53.00002,23"
               stroke="#ffffff"
               stroke-width="3.2569"
               stroke-miterlimit="8"
               fill="#ffffff"
               fill-rule="evenodd"
               id="path22"
               style="stroke:#000000;stroke-width:2.12409;stroke-dasharray:none;stroke-opacity:1"
               sodipodi:nodetypes="cc" /><path
               d="m 877.03137,815.86313 53.00011,-22"
               stroke="#ffffff"
               stroke-width="3.2569"
               stroke-miterlimit="8"
               fill="#ffffff"
               fill-rule="evenodd"
               id="path23"
               style="stroke:#000000;stroke-width:2.12409;stroke-dasharray:none;stroke-opacity:1"
               sodipodi:nodetypes="cc" /><path
               d="m 877.03137,815.87233 53.00011,-68"
               stroke="#ffffff"
               stroke-width="3.2569"
               stroke-miterlimit="8"
               fill="#ffffff"
               fill-rule="evenodd"
               id="path24"
               style="stroke:#000000;stroke-width:2.12409;stroke-dasharray:none;stroke-opacity:1"
               sodipodi:nodetypes="cc" /><path
               d="m 886.03706,816.34473 c 0,4.694 -3.806,8.5 -8.5,8.5 -4.695,0 -8.5,-3.806 -8.5,-8.5 0,-4.695 3.805,-8.5 8.5,-8.5 4.694,0 8.5,3.805 8.5,8.5 z"
               stroke="#ffffff"
               stroke-width="1.23087"
               stroke-linecap="round"
               stroke-linejoin="bevel"
               stroke-miterlimit="10"
               fill="#ffffff"
               fill-rule="evenodd"
               id="path25"
               style="stroke:#000000;stroke-opacity:1" /><path
               d="m 886.03706,770.34473 c 0,4.694 -3.806,8.5 -8.5,8.5 -4.695,0 -8.5,-3.806 -8.5,-8.5 0,-4.695 3.805,-8.5 8.5,-8.5 4.694,0 8.5,3.805 8.5,8.5 z"
               stroke="#ffffff"
               stroke-width="1.23087"
               stroke-linecap="round"
               stroke-linejoin="bevel"
               stroke-miterlimit="10"
               fill="#ffffff"
               fill-rule="evenodd"
               id="path26"
               style="stroke:#000000;stroke-opacity:1" /><path
               d="m 938.03708,793.34473 c 0,4.694 -3.806,8.5 -8.5,8.5 -4.695,0 -8.5,-3.806 -8.5,-8.5 0,-4.695 3.805,-8.5 8.5,-8.5 4.694,0 8.5,3.805 8.5,8.5 z"
               stroke="#ffffff"
               stroke-width="1.23087"
               stroke-linecap="round"
               stroke-linejoin="bevel"
               stroke-miterlimit="10"
               fill="#ffffff"
               fill-rule="evenodd"
               id="path27"
               style="stroke:#000000;stroke-opacity:1" /><path
               d="m 938.03408,747.34573 c 0,4.694 -3.805,8.499 -8.5,8.499 -4.694,0 -8.5,-3.805 -8.5,-8.499 0,-4.695 3.806,-8.501 8.5,-8.501 4.695,0 8.5,3.806 8.5,8.501 z"
               stroke="#ffffff"
               stroke-width="1.23087"
               stroke-linecap="round"
               stroke-linejoin="bevel"
               stroke-miterlimit="10"
               fill="#ffffff"
               fill-rule="evenodd"
               id="path17"
               style="stroke:#000000;stroke-opacity:1" /><path
               d="m 886.03706,724.84573 c 0,4.418 -3.806,8 -8.5,8 -4.695,0 -8.5,-3.582 -8.5,-8 0,-4.419 3.805,-8 8.5,-8 4.694,0 8.5,3.581 8.5,8 z"
               stroke="#ffffff"
               stroke-width="1.23087"
               stroke-linecap="round"
               stroke-linejoin="bevel"
               stroke-miterlimit="10"
               fill="#ffffff"
               fill-rule="evenodd"
               id="path19"
               style="stroke:#000000;stroke-opacity:1" /></g></g><use
           x="0"
           y="0"
           xlink:href="#path56"
           id="use58"
           transform="matrix(-1,0,0,1,2075.9491,2.080148)" /><use
           x="0"
           y="0"
           xlink:href="#use58"
           id="use59"
           transform="rotate(120,1036.3562,588.71081)" /></g></g></g></svg>
